<?xml version="1.0" encoding="utf-8"?>
<!-- Generator: Adobe Illustrator 21.0.2, SVG Export Plug-In . SVG Version: 6.00 Build 0)  -->
<svg version="1.1" id="Layer_1" xmlns="http://www.w3.org/2000/svg" xmlns:xlink="http://www.w3.org/1999/xlink" x="0px" y="0px"
	 width="10px" height="8px" viewBox="0 0 10 8" style="enable-background:new 0 0 10 8;" xml:space="preserve">
<style type="text/css">
	.Drop_x0020_Shadow{fill:none;}
	.Round_x0020_Corners_x0020_2_x0020_pt{fill:#FFFFFF;stroke:#000000;stroke-miterlimit:10;}
	.Live_x0020_Reflect_x0020_X{fill:none;}
	.Bevel_x0020_Soft{fill:url(#SVGID_1_);}
	.Dusk{fill:#FFFFFF;}
	.Foliage_GS{fill:#FFDD00;}
	.Pompadour_GS{fill-rule:evenodd;clip-rule:evenodd;fill:#44ADE2;}
	.st0{fill:#010101;}
</style>
<linearGradient id="SVGID_1_" gradientUnits="userSpaceOnUse" x1="0" y1="0" x2="0.7071" y2="0.7071">
	<stop  offset="0" style="stop-color:#DEDFE3"/>
	<stop  offset="0.1738" style="stop-color:#D8D9DD"/>
	<stop  offset="0.352" style="stop-color:#C9CACD"/>
	<stop  offset="0.5323" style="stop-color:#B4B5B8"/>
	<stop  offset="0.7139" style="stop-color:#989A9C"/>
	<stop  offset="0.8949" style="stop-color:#797C7E"/>
	<stop  offset="1" style="stop-color:#656B6C"/>
</linearGradient>
<path class="st0" d="M8.1,3.7c0-0.2-0.2-0.3-0.4-0.3H6.6c-0.1,0-0.2,0-0.3,0.1C6.2,3.5,6.2,3.6,6.2,3.7c0,0.1,0,0.2,0.1,0.3
	c0.1,0.1,0.2,0.1,0.3,0.1h0.9l0.7,3H1.8l0.7-3h0.9c0.1,0,0.2,0,0.3-0.1c0.1-0.1,0.1-0.2,0.1-0.3c0-0.1,0-0.2-0.1-0.3
	C3.6,3.4,3.5,3.4,3.4,3.4l-1.2,0c-0.2,0-0.3,0.1-0.4,0.3L1,7.5c0,0.1,0,0.2,0.1,0.3c0.1,0.1,0.2,0.1,0.3,0.1h7.3
	c0.1,0,0.2-0.1,0.3-0.1C9,7.7,9,7.6,9,7.5L8.1,3.7z"/>
<path class="st0" d="M3.8,2.1l0.8-0.8v5.2c0,0.2,0.2,0.4,0.4,0.4s0.4-0.2,0.4-0.4V1.3l0.8,0.8c0.1,0.1,0.2,0.1,0.3,0.1
	c0.1,0,0.2,0,0.3-0.1c0.1-0.2,0.1-0.4,0-0.5L5.3,0.2C5.2,0.1,5.1,0.1,5,0.1h0c0,0-0.2,0-0.3,0.1L3.3,1.6C3.2,1.6,3.2,1.7,3.2,1.8
	c0,0.1,0,0.2,0.1,0.3C3.4,2.2,3.6,2.3,3.8,2.1z"/>
</svg>
