<?xml version="1.0" encoding="utf-8"?>
<!-- Generator: Adobe Illustrator 22.0.1, SVG Export Plug-In . SVG Version: 6.00 Build 0)  -->
<svg version="1.1" id="Layer_1" xmlns="http://www.w3.org/2000/svg" xmlns:xlink="http://www.w3.org/1999/xlink" x="0px" y="0px"
	 viewBox="0 0 24 24" style="enable-background:new 0 0 24 24;" xml:space="preserve">
<style type="text/css">
	.st0{fill:#FFFFFF;}
</style>
<path id="left-arrow.svg" class="st0" d="M8.3,11.4l6-5.2c0.4-0.3,1-0.3,1.4,0c0.3,0.3,0.4,0.8,0.1,1.2c0,0,0,0-0.1,0.1L10.5,12
	l5.2,4.5c0.2,0.1,0.3,0.3,0.3,0.6c0,0.3-0.1,0.5-0.3,0.7C15.5,17.9,15.2,18,15,18c-0.3,0-0.5-0.1-0.7-0.2l-5.9-5.1
	C8.1,12.5,8,12.2,8,12C8,11.8,8.1,11.5,8.3,11.4z"/>
</svg>
