<?xml version="1.0" encoding="UTF-8" standalone="no"?>
<svg width="15px" height="19px" viewBox="0 0 15 19" version="1.1" xmlns="http://www.w3.org/2000/svg" xmlns:xlink="http://www.w3.org/1999/xlink">
    <!-- Generator: Sketch 41.2 (35397) - http://www.bohemiancoding.com/sketch -->
    <title>football</title>
    <desc>Created with Sketch.</desc>
    <defs></defs>
    <g id="UI-Blog" stroke="none" stroke-width="1" fill="none" fill-rule="evenodd">
        <g id="BlogWidget_NormalState" transform="translate(-1359.000000, -884.000000)" fill="#FFFFFF">
            <g id="Home-Page-Widget" transform="translate(1351.000000, 871.000000)">
                <g id="TOP-BETS">
                    <g id="Group-7">
                        <g>
                            <path d="M14.4810785,24.9626539 C15.2653706,24.9626539 16.0111372,24.7992528 16.6878236,24.5061604 C16.5245886,24.5181165 16.3618517,24.5247589 16.2180455,24.5247589 C16.0549765,24.5247589 15.8316284,24.5167881 15.6727109,24.4804214 C15.2011061,24.7477748 14.7617166,24.8884259 14.3854291,24.960163 C14.4173123,24.9608272 14.4490293,24.9626539 14.4810785,24.9626539 M10.1336795,22.8636805 C10.1414843,22.8665034 10.1484587,22.8684961 10.1569276,22.8716512 C10.2414512,22.9027041 10.4033578,22.9621529 10.6049522,22.9759357 C10.6017971,22.3824443 10.7238497,21.3811144 10.781804,20.9417249 C10.7741653,20.9319275 10.7658624,20.9201374 10.7565632,20.9061885 C10.515613,20.5508243 9.78030806,18.9247842 9.62720256,18.5054877 C9.40634539,18.4877195 9.19644805,18.4825717 9.0028244,18.489214 C8.95300699,18.7877863 8.92577347,19.0943294 8.92577347,19.4073488 C8.92577347,20.7145575 9.37828158,21.915157 10.1336795,22.8636805 M9.05861989,18.2016015 C9.25805558,18.1977822 9.46114454,18.2017675 9.66821889,18.220366 C9.86997939,17.8718103 10.6866527,16.6198988 11.2952554,16.1006354 C11.3234853,15.813355 11.3864212,15.189475 11.4857239,14.7303246 C10.2711756,15.5096349 9.38044034,16.7480956 9.05861989,18.2016015 M11.8015663,14.5410184 C11.7459369,14.8188335 11.6874844,15.2039221 11.6468002,15.4920327 C11.6169098,15.7022622 11.5920011,15.8938932 11.5753953,16.0257432 C12.0651004,16.1273707 13.6091079,16.7447745 13.935744,16.9365715 C14.5441806,16.526076 15.8829404,16.0370352 16.6609222,15.7711763 C16.697455,15.100634 16.5611213,14.348059 16.5453458,14.2641997 L16.5423568,14.2490884 C15.90486,13.9943554 15.2097411,13.8527079 14.4810785,13.8527079 C13.509307,13.8527079 12.5961539,14.1026253 11.8015663,14.5410184 M20.0363836,19.4073488 C20.0363836,18.7057536 19.9050317,18.0353774 19.6677348,17.4173094 C19.5634504,17.4920356 19.4511952,17.5753967 19.3512282,17.6582596 C19.227515,17.7602193 19.1635827,17.8276388 19.1308692,17.8693194 C19.1260535,18.3047235 19.0891887,19.705589 18.8223334,20.8462415 C19.0202746,21.1404964 19.3148615,21.5918421 19.4588338,21.8739746 C19.8278147,21.1306989 20.0363836,20.2936004 20.0363836,19.4073488 M13.2040924,24.662421 L13.2202,24.6693954 L13.2383003,24.6987877 L13.2480977,24.7281799 C13.2480977,24.7288442 13.2480977,24.7293423 13.2482638,24.7296745 C13.3963875,24.756908 13.5544748,24.7706908 13.7188722,24.7706908 C14.1213969,24.7706908 14.7534137,24.6828461 15.4842351,24.2662065 C15.8404295,23.6871622 15.9822431,22.4706211 16.0142923,22.1502952 C15.3902462,21.7273454 13.7565674,20.5049923 13.543515,20.3454106 C12.7743342,20.5543115 11.4797459,20.9017049 11.0501538,20.9913763 C11.0003363,21.4050268 10.8802764,22.8392699 10.8615118,23.0646107 L10.9903729,23.1752053 C11.0634384,23.2537508 12.2582259,24.0606267 12.84823,24.4316003 C13.0870215,24.5813846 13.1688881,24.6335269 13.2040924,24.662421 M13.7559032,20.1667321 C14.2429513,20.5305652 15.6952948,21.6112709 16.2099086,21.9555091 C16.7640442,21.869325 18.1062912,21.0780585 18.543522,20.8135281 C18.8397695,19.5274087 18.861191,18.0898444 18.8623534,17.848064 C18.3817815,17.2275051 17.4229625,16.2560657 16.8273123,15.9960188 C15.092006,16.5883478 14.3628452,16.9664619 14.0571324,17.1833337 C14.0825393,17.7211956 13.858527,19.7110689 13.7559032,20.1667321 M20.8155279,19.4073488 C20.8155279,22.9462113 17.9465434,25.8155279 14.4076809,25.8155279 C10.8686523,25.8155279 8,22.9462113 8,19.4073488 C8,15.9704459 10.3505513,13 14.4076809,13 C17.9463774,13 20.8155279,15.867822 20.8155279,19.4073488 M20.5033388,23.2922762 C20.1047995,23.9179828 19.6008134,24.4694615 19.0161231,24.9224678 C20.2243613,25.7349897 20.0709237,27.87664 20.0687649,27.9015487 C20.0629529,27.9757767 20.1124382,28.0430302 20.1850056,28.0589717 C20.1957993,28.0612966 20.2067592,28.062625 20.2173869,28.062625 C20.2783302,28.062625 20.3347899,28.0247638 20.3567095,27.9654811 C21.162257,25.7997523 20.8239968,24.1551137 20.5033388,23.2922762 M15.753083,26.2290123 C16.5616195,26.4405703 17.1728791,26.7957684 17.5754037,27.2932782 C18.406026,28.3195168 18.1964607,29.7019498 18.071253,30.5280885 C18.0496654,30.6710644 18.0310669,30.7944455 18.0214356,30.8934161 C18.0144611,30.964655 18.0591308,31.0307461 18.1278788,31.0506731 C18.1418276,31.0549906 18.1557765,31.0566512 18.1695593,31.0566512 C18.2245245,31.0566512 18.2763346,31.0264286 18.3022397,30.9752827 C18.9511944,29.7004553 19.4877279,26.8014143 18.5333925,25.2617244 C17.7140622,25.7836447 16.769026,26.1257242 15.753083,26.2290123 M20.698457,31.8271604 C20.6715556,31.8766457 20.6204097,31.9052076 20.5674372,31.9052076 C20.5463478,31.9052076 20.5249263,31.900558 20.5046672,31.8910927 C20.4332623,31.8578811 20.4002167,31.7748521 20.4289448,31.7017866 C21.9194816,27.6209107 21.9947059,24.1896538 20.981918,22.3917436 C21.3180194,21.6134296 21.5051668,20.7557399 21.5051668,19.8538788 C21.5051668,19.0294007 21.3477438,18.2421196 21.0641167,17.5182727 C21.8454197,18.8248172 22.610283,20.4578318 22.8241657,21.9983521 C23.3904236,25.8508982 22.564617,28.3822867 20.698457,31.8271604" id="football"></path>
                        </g>
                    </g>
                </g>
            </g>
        </g>
    </g>
</svg>