<?xml version="1.0" encoding="utf-8"?>
<!-- Generator: Adobe Illustrator 19.2.1, SVG Export Plug-In . SVG Version: 6.00 Build 0)  -->
<svg version="1.1" id="Layer_1" xmlns="http://www.w3.org/2000/svg" xmlns:xlink="http://www.w3.org/1999/xlink" x="0px" y="0px"
	 width="6px" height="20px" viewBox="0 0 6 20" style="enable-background:new 0 0 6 20;" xml:space="preserve">
<style type="text/css">
	.st0{fill:#FFFFFF;}
</style>
<path class="st0" d="M3.4,4.3l2.4,2.4C6,6.9,6,7.3,5.8,7.5L5.6,7.7C5.4,7.9,5,7.9,4.8,7.7L3,5.9L1.2,7.7C1,7.9,0.6,7.9,0.4,7.7
	L0.2,7.5C0,7.3,0,6.9,0.2,6.7l2.4-2.4C2.7,4.2,2.8,4.1,3,4.1S3.3,4.2,3.4,4.3z"/>
<path class="st0" d="M2.6,15.7l-2.4-2.4c-0.2-0.2-0.2-0.6,0-0.8l0.2-0.2c0.2-0.2,0.6-0.2,0.8,0L3,14.1l1.8-1.8
	c0.2-0.2,0.6-0.2,0.8,0l0.2,0.2c0.2,0.2,0.2,0.6,0,0.8l-2.4,2.4c-0.1,0.1-0.3,0.2-0.4,0.2C2.8,15.9,2.7,15.8,2.6,15.7z"/>
</svg>
