<?xml version="1.0" encoding="utf-8"?>
<!-- Generator: Adobe Illustrator 23.0.1, SVG Export Plug-In . SVG Version: 6.00 Build 0)  -->
<svg version="1.1" id="Layer_1" xmlns="http://www.w3.org/2000/svg" xmlns:xlink="http://www.w3.org/1999/xlink" x="0px" y="0px"
	 width="50px" height="20px" viewBox="0 0 50 20" style="enable-background:new 0 0 50 20;" xml:space="preserve">
<style type="text/css">
	.st0{fill:#E0EB21;}
</style>
<title>LIVE TITLE ICON Copy</title>
<desc>Created with Sketch.</desc>
<g id="Page-1">
	<g id="Desktop" transform="translate(-441.000000, -331.000000)">
		<g id="LIVE-TITLE-ICON-Copy" transform="translate(441.000000, 331.000000)">
			<path id="Rectangle" class="st0" d="M19.7,0H50l-4.8,10.1c-2.8,6.1-8.6,9.9-15,9.9H0L4.8,9.9C7.6,3.8,13.4,0,19.7,0z"/>
		</g>
	</g>
</g>
<g>
	<path d="M9.5,5.8h6l0,1.6h-4.1v2.1h3.8V11h-3.8v3.2H9.5V5.8z"/>
	<path d="M22.5,14.2l-0.7-1.6H18l-0.7,1.6h-2L19,5.8h2l3.6,8.4H22.5z M18.6,11h2.7l-1.3-3.3L18.6,11z"/>
	<path d="M33.2,14.2h-2.3l-2.4-3.4l-1.2,1.3v2.1h-1.9V5.8h1.9v3.9l3.5-3.9H33l-3.2,3.5L33.2,14.2z"/>
	<path d="M33.4,5.8h7v1.6h-2.6v6.8H36V7.4h-2.6V5.8z"/>
</g>
</svg>
