<?xml version="1.0" encoding="utf-8"?>
<!-- Generator: Adobe Illustrator 21.0.2, SVG Export Plug-In . SVG Version: 6.00 Build 0)  -->
<svg version="1.1" id="Layer_1" xmlns="http://www.w3.org/2000/svg" xmlns:xlink="http://www.w3.org/1999/xlink" x="0px" y="0px"
	 width="50px" height="20px" viewBox="0 0 50 20" style="enable-background:new 0 0 50 20;" xml:space="preserve">
<style type="text/css">
	.st0{fill:#E0EB21;}
	.st1{enable-background:new    ;}
</style>
<title>LIVE TITLE ICON Copy</title>
<desc>Created with Sketch.</desc>
<g id="Page-1">
	<g id="Desktop" transform="translate(-441.000000, -331.000000)">
		<g id="LIVE-TITLE-ICON-Copy" transform="translate(441.000000, 331.000000)">
			<path id="Rectangle" class="st0" d="M19.7,0H50l-4.8,10.1c-2.8,6.1-8.6,9.9-15,9.9H0L4.8,9.9C7.6,3.8,13.4,0,19.7,0z"/>
			<g class="st1">
				<path d="M9.9,6h6.2v1.7h-4.1v1.9h3.7v1.7h-3.7v3H9.9V6z"/>
				<path d="M22.8,14.4l-0.6-1.5h-3.6l-0.6,1.5h-2.2L19.4,6h2.2l3.5,8.3H22.8z M19.3,11.2h2.3l-1.2-3L19.3,11.2z"/>
				<path d="M30.7,8c-0.4-0.2-0.7-0.3-1.1-0.3c-0.4,0-0.8,0.1-1.2,0.3c-0.3,0.2-0.6,0.5-0.8,0.9c-0.2,0.4-0.3,0.8-0.3,1.2
					s0.1,0.9,0.3,1.2c0.2,0.4,0.5,0.7,0.8,0.9c0.3,0.2,0.7,0.3,1.2,0.3c0.3,0,0.7-0.1,1.1-0.2c0.4-0.2,0.7-0.4,1-0.7L33,13
					c-0.5,0.5-1,0.8-1.6,1.1c-0.6,0.3-1.2,0.4-1.9,0.4c-0.8,0-1.6-0.2-2.2-0.6c-0.7-0.4-1.2-0.9-1.6-1.6c-0.4-0.7-0.6-1.4-0.6-2.2
					s0.2-1.5,0.6-2.2s0.9-1.2,1.6-1.5C28,6,28.8,5.9,29.6,5.9c0.6,0,1.2,0.1,1.8,0.4c0.6,0.2,1.1,0.6,1.5,1l-1.3,1.5
					C31.4,8.5,31.1,8.3,30.7,8z"/>
				<path d="M33.1,6h7.1v1.8h-2.5v6.5h-2.2V7.8h-2.5C33.1,7.8,33.1,6,33.1,6z"/>
			</g>
		</g>
	</g>
</g>
</svg>
