<?xml version="1.0" encoding="utf-8"?>
<!-- Generator: Adobe Illustrator 21.0.2, SVG Export Plug-In . SVG Version: 6.00 Build 0)  -->
<svg version="1.1" id="Layer_1" xmlns="http://www.w3.org/2000/svg" xmlns:xlink="http://www.w3.org/1999/xlink" x="0px" y="0px"
	 width="36px" height="36px" viewBox="0 0 36 36" style="enable-background:new 0 0 36 36;" xml:space="preserve">
<style type="text/css">
	.st0{fill:#FFFFFF;}
</style>
<title>NEW-footballicon</title>
<g>
	<path class="st0" d="M35.6,21.6C35.6,21.6,35.6,21.6,35.6,21.6c0.2-1.2,0.4-2.4,0.4-3.6c0-4-1.3-7.9-3.8-11
		c0.1,0.1,0.1,0.1,0.2,0.2c0,0,0.1,0.1,0.1,0l-0.3-0.4c-0.1-0.1-0.2-0.2-0.3-0.3c-0.3-0.3-0.6-0.6-0.8-0.8c0,0,0,0,0,0
		c-0.1-0.1-0.2-0.2-0.3-0.4c-3.4-3.4-7.9-5.3-12.7-5.3c-0.6,0-1.3,0-1.9,0.1c0,0-0.1,0-0.1,0c0,0-0.1,0-0.1,0c0,0,0,0-0.1,0
		c0,0,0,0,0,0c0,0,0,0,0.1,0c-0.1,0-0.1,0-0.2,0c0,0,0,0,0.1,0c0,0,0,0,0,0c0,0,0,0-0.1,0l-0.5,0.1c0,0,0,0,0,0c0,0,0,0,0,0
		c0,0,0,0,0,0c-0.1,0-0.2,0-0.3,0.1C11.4,1,8,2.7,5.4,5.3c-2.2,2.2-3.8,4.9-4.6,7.9c-0.1,0.3-0.2,0.6-0.3,0.9
		c-0.2,1-0.4,2.1-0.5,3.1c0,0.3,0,0.6,0,0.9c0,0,0,0.1-0.1,0.1v0.1c0.1-0.1,0.1,0,0.1,0.1c0,0.3,0,0.5,0.1,0.8c0,0.1,0,0.2,0,0.3
		c0.1,1.9,0.6,3.7,1.3,5.4c0.1,0.2,0.2,0.5,0.3,0.7c0.2,0.5,0.4,0.9,0.7,1.3c0,0.1,0.1,0.2,0.1,0.3c0.2,0.4,0.4,0.7,0.7,1
		c0.1,0.1,0.2,0.2,0.3,0.3C4,29.2,4.7,30,5.4,30.7c3.4,3.4,7.9,5.3,12.7,5.3c4.8,0,9.3-1.9,12.7-5.3C33.2,28.2,34.9,25.1,35.6,21.6
		C35.6,21.7,35.6,21.7,35.6,21.6C35.6,21.7,35.6,21.7,35.6,21.6C35.6,21.7,35.6,21.7,35.6,21.6C35.6,21.7,35.6,21.7,35.6,21.6
		C35.6,21.6,35.6,21.6,35.6,21.6z M35.2,22.2c-0.2,0.3-0.4,0.6-0.7,0.8c-0.4,0.4-0.9,0.8-1.4,1.1c-0.1,0-0.1,0.1-0.2,0.1
		c-0.2,0.1-0.3,0-0.4-0.1c-0.1-0.1-0.1-0.3-0.2-0.4c-0.4-0.7-0.7-1.4-1.1-2.1c0-0.1-0.5-0.9-0.8-1.4c0-0.1,0-0.1-0.1-0.1
		c-0.5-0.7-0.9-1.4-1.4-2.1c-0.3-0.3-0.5-0.7-0.8-1.1c-0.2-0.3-0.3-0.7-0.2-1.1c0.4-1.7,0.7-3.4,0.8-5.1c0-0.4,0-0.8,0.1-1.2
		c0-0.7,0-1.3,0-2c0-0.2,0-0.4,0-0.6c0-0.3,0.1-0.4,0.4-0.4c1.1,0.1,2,0.4,2.9,0.9c2.2,2.9,3.4,6.6,3.4,10.5
		C35.7,19.5,35.5,20.9,35.2,22.2z M22.9,33.8c-0.2,0.1-0.3,0.2-0.5,0.2c-0.1,0.1-0.2,0.1-0.3,0.1c-0.8,0-1.6-0.1-2.5-0.2
		c-0.8-0.1-1.5-0.3-2.3-0.6c-0.6-0.2-1.2-0.4-1.8-0.7c-0.4-0.2-0.8-0.3-1.2-0.5c-0.4-0.2-0.7-0.4-1-0.6c-0.2-0.1-0.4-0.2-0.6-0.4
		c-0.1-0.1-0.2-0.3-0.2-0.4c0-0.4,0.1-0.9,0.2-1.3c0.1-0.4,0.1-0.9,0.2-1.3c0.2-1.3,0.5-2.5,0.8-3.7c0.2-0.7,0.3-1.4,0.5-2
		c0.1-0.4,0.3-0.7,0.8-0.8c0.5-0.1,0.9-0.2,1.4-0.3c0.2-0.1,0.4-0.1,0.7-0.1c0.1,0,0.3-0.1,0.4-0.1c0.2-0.1,0.3-0.1,0.5-0.2
		c0.7-0.1,1.4-0.3,2.1-0.5c1.6-0.4,3.2-0.8,4.8-1.2c0.2-0.1,0.5-0.1,0.7-0.1c0.2,0,0.4,0.1,0.6,0.3c0.3,0.4,0.7,0.9,1,1.3
		c0.5,0.6,0.9,1.3,1.3,2c0,0,0,0,0,0c0.5,0.9,1,1.8,1,1.9c0.3,0.7,0.7,1.3,0.9,2c0.1,0.3,0.1,0.7-0.1,1v0c-0.7,1-1.4,1.9-2.3,2.8
		c-0.6,0.6-1.2,1.2-1.9,1.7c-0.4,0.3-0.8,0.6-1.2,0.8C24.1,33.1,23.5,33.5,22.9,33.8z M4.4,28.2c-0.5-0.2-0.9-0.5-1.3-0.8
		c-1.7-2.7-2.7-5.9-2.7-9.3c0-0.7,0-1.5,0.1-2.2c0.1-0.2,0.2-0.3,0.3-0.5c0.3-0.4,0.6-0.8,0.9-1.2C2,14,2.2,13.8,2.4,13.6
		c0.1-0.1,0.1-0.1,0.1-0.2c0-0.1,0.1-0.1,0.1-0.2c0.7-0.5,1.4-1,2.1-1.4c0.3-0.2,0.5-0.1,0.7,0.2c0.7,1.3,1.4,2.6,2.2,3.8
		c0.5,0.7,1,1.4,1.5,2.1c0.4,0.6,0.9,1.2,1.4,1.8c0.3,0.4,0.4,0.8,0.2,1.2c-0.3,0.9-0.6,1.9-0.8,2.9c-0.1,0.3-0.1,0.5-0.2,0.8
		c-0.1,0.2-0.2,0.4-0.2,0.7c-0.1,0.3-0.1,0.5-0.2,0.8c-0.1,0.5-0.1,0.9-0.2,1.4C9.1,28,9,28.5,9,29c0,0.1,0,0.2,0,0.2
		c-0.1,0.3-0.1,0.3-0.5,0.3c-0.4,0-0.8-0.2-1.3-0.3C6.1,29,5.2,28.6,4.4,28.2z M5.8,30.6C5.8,30.6,5.8,30.6,5.8,30.6
		C5.8,30.6,5.8,30.6,5.8,30.6C5.8,30.6,5.8,30.6,5.8,30.6z M5.7,30.6C5.8,30.6,5.8,30.6,5.7,30.6C5.8,30.6,5.8,30.6,5.7,30.6z
		 M6,30.9C6,30.9,6.1,30.9,6,30.9c0,0-0.1-0.1-0.2-0.2L6,30.9C6,30.9,6,30.9,6,30.9z M9.9,13.2c-0.5-0.8-1-1.6-1.5-2.4
		c-0.2-0.3-0.4-0.7-0.6-1c-0.2-0.3-0.2-0.7,0.1-1c0.2-0.3,0.4-0.5,0.6-0.8c0.7-1,1.6-1.9,2.4-2.8c1.2-1.2,2.5-2.2,3.9-3
		c0.5-0.3,1-0.3,1.5-0.2c0.4,0.1,0.8,0.1,1.1,0.2c1,0.2,1.9,0.4,2.9,0.7c0.7,0.2,1.4,0.5,2.1,0.8c0.8,0.3,1.5,0.7,2.2,1.1
		c0.3,0.2,0.5,0.3,0.8,0.5c0.2,0.1,0.3,0.4,0.4,0.6c0,0.4,0,0.8,0,1.3c0.1,0.8-0.1,1.5-0.1,2.3c0,1.4-0.3,2.8-0.5,4.2
		c-0.1,0.4-0.1,0.8-0.2,1.1c-0.1,0.5-0.4,0.7-0.8,0.8c-1.7,0.4-3.3,0.7-5,1.1c-1.6,0.3-3.2,0.7-4.7,1c-0.2,0.1-0.5,0.1-0.7,0.1
		c-0.3,0-0.6-0.1-0.7-0.4C11.9,16,10.9,14.6,9.9,13.2z M29.6,4.7c-0.6-0.3-1.3-0.5-2.1-0.5c-0.3,0-0.6-0.1-0.9-0.3
		c-1.3-0.9-2.6-1.6-4.1-2.1c-0.4-0.1-0.8-0.3-1.2-0.4c-0.4-0.1-0.9-0.2-1.3-0.3c-0.4-0.1-0.8-0.2-1.2-0.2c-0.5-0.1-1-0.1-1.5-0.2
		c-0.1,0-0.3,0-0.4-0.1c-0.1,0-0.2-0.1-0.3-0.2c0,0,0,0,0,0c0.5,0,0.9-0.1,1.4-0.1C22.5,0.3,26.5,2,29.6,4.7z M13,1.1
		c0.2,0.3,0.1,0.3-0.2,0.5c-0.8,0.5-1.6,1.1-2.4,1.7c-1.2,1-2.3,2.2-3.3,3.4C6.8,7.1,6.5,7.5,6.2,7.8C6.1,8.1,5.9,8.3,5.8,8.6
		C5.6,8.8,5.3,8.9,5,9.1C4.1,9.4,3.3,10,2.6,10.6c-0.4,0.3-0.7,0.7-1,1.1C3.5,6.6,7.7,2.7,13,1.1z M18.1,35.7c-4.6,0-8.8-1.8-12-4.7
		c0,0,0,0,0.1,0c0,0,0,0,0,0l0,0c0,0,0,0,0,0c0,0,0,0.1,0.1,0.1c0,0,0,0,0,0l0,0c0.1,0,0.1,0,0.1,0c0.4,0.3,0.7,0.5,1.1,0.7
		c0.3,0.2,0.7,0.4,1,0.6c0.2,0.1,0.4,0,0.6,0c0,0,0.1,0,0.1-0.1c0,0,0,0,0,0c0-0.2,0.1-0.3,0.3-0.3c0.1-0.1,0.2,0,0.3,0
		c0.1,0,0.3,0.1,0.4,0.1c0.3,0,0.6,0.2,0.9,0.3c0.4,0.3,0.8,0.5,1.3,0.8c0.2,0.1,0.5,0.3,0.7,0.4c0.2,0.2,0.5,0.2,0.8,0.4
		c0.2,0.1,0.6,0.2,0.9,0.3c0.1,0,0.2,0.1,0.3,0.1l3.3,0.7c0,0,0,0,0,0l0,0l0.3,0.1c0-0.1,0.1,0,0.1,0c0.5,0,0.9,0,1.4,0
		c0,0,0.1,0,0.1,0c0.6-0.1,1.1-0.1,1.6-0.2c0,0,0.1-0.1,0.1-0.1l0,0.2c0.4,0,0.7-0.2,1.1-0.2c0,0,0,0,0,0c0,0,0.1,0,0.1,0
		c0,0,0,0,0,0c0,0,0,0,0.1,0c0-0.1,0.2-0.1,0.3-0.2c0.2-0.1,0.4-0.2,0.5-0.3c0.2-0.2,0.5-0.3,0.7-0.4c1.1-0.5,2-1.1,2.9-1.9
		c0.8-0.7,1.6-1.3,2.3-2.1c0.5-0.6,1-1.2,1.4-1.9c0.2-0.4,0.5-0.7,0.8-0.9c0.5-0.3,1-0.7,1.4-1.1C30.8,31.8,24.9,35.7,18.1,35.7z"/>
	<path class="st0" d="M18.3,35.2C18.3,35.2,18.3,35.2,18.3,35.2C18.3,35.2,18.3,35.2,18.3,35.2L18.3,35.2L18.3,35.2L18.3,35.2
		L18.3,35.2L18.3,35.2C18.3,35.2,18.3,35.2,18.3,35.2C18.3,35.2,18.3,35.2,18.3,35.2z"/>
</g>
</svg>
