<?xml version="1.0" encoding="utf-8"?>
<!-- Generator: Adobe Illustrator 21.0.2, SVG Export Plug-In . SVG Version: 6.00 Build 0)  -->
<svg version="1.1" id="Layer_1" xmlns="http://www.w3.org/2000/svg" xmlns:xlink="http://www.w3.org/1999/xlink" x="0px" y="0px"
	 width="60px" height="22px" viewBox="0 0 60 22" style="enable-background:new 0 0 60 22;" xml:space="preserve">
<style type="text/css">
	.st0{fill:#FFFFFF;}
	.st1{fill:#F00F36;}
</style>
<path id="Rectangle" class="st0" d="M23.7,0H60l-5.7,11.1C50.9,17.8,43.9,22,36.3,22H0l5.7-11.1C9.1,4.2,16.1,0,23.7,0z"/>
<g>
	<path class="st1" d="M14.8,6.3h2.6V14h4.2v2.2h-6.8C14.8,16.2,14.8,6.3,14.8,6.3z"/>
	<path class="st1" d="M22.9,6.3h2.6v9.9h-2.6V6.3z"/>
	<path class="st1" d="M26.4,6.3h2.8l2.5,7.1l2.5-7.1h2.7L33,16.2h-2.7L26.4,6.3z"/>
	<path class="st1" d="M37.8,6.3h7.9v2.1h-5.3v1.9h4.8v2h-4.8v1.8h5.4v2.1h-8C37.8,16.2,37.8,6.3,37.8,6.3z"/>
</g>
</svg>
