<?xml version="1.0" encoding="utf-8"?>
<!-- Generator: Adobe Illustrator 23.0.1, SVG Export Plug-In . SVG Version: 6.00 Build 0)  -->
<svg version="1.1" id="Layer_1" xmlns="http://www.w3.org/2000/svg" xmlns:xlink="http://www.w3.org/1999/xlink" x="0px" y="0px"
	 width="36px" height="36px" viewBox="0 0 36 36" style="enable-background:new 0 0 36 36;" xml:space="preserve">
<style type="text/css">
	.st0{fill:#FFFFFF;}
</style>
<path class="st0" d="M35.5,6.7c-0.1,2.5-0.8,4.7-1.9,6.8c-1.9,3.7-4.4,6.9-8.3,8.6c-1.7,0.8-3.6,1.2-5.5,1.8c-2,0.6-4.1,1.1-6.1,1.6
	c-0.2,0-0.4,0.1-0.5,0.2c-0.8,0.4-1.6,0.4-2.1-0.3c-0.2-0.3-0.4-0.8-0.2-1.1c1.2-2.7,2.5-5.4,3.7-8.1c1.1-2.3,2-4.6,3.2-6.8
	c1.9-3.5,4.6-6.2,8.2-8c3.1-1.5,6.2-1,8.3,1.4C35.1,4,35.4,5.3,35.5,6.7z M16,17.3c0.2,0.6,0.4,1.8,0.8,2.8c0.5,1.1,1.3,1.9,2.7,1.9
	c1.5,0,3.1-0.4,4.5-1.1c3.8-2,6.3-5.2,8.1-9c0.9-1.8,1.4-3.6,1.6-5.6c0.3-2.8-1.2-5-3.7-5.2c-1.1-0.1-2.3,0.1-3.3,0.6
	C22.8,3.5,20,6.4,18,10.1C16.9,12.2,16.1,14.4,16,17.3L16,17.3z M15.3,19.6l-1.8,4.2l4.3-1.2L15.3,19.6z"/>
<g>
	<path class="st0" d="M3.6,31c0.2,0.5,0.3,1,0.5,1.6l0.4,0c-0.7-1.3-0.7-2.4,0.7-3.1l0.5,1.8l-1.3,1L6,33L6,33.3l-1.8-0.5l-1.1,1
		l1.5,0.7l0,0.2c-0.3-0.1-0.7-0.1-1-0.2c-0.5-0.1-0.9-0.1-1.6-0.1c-0.5-0.7-0.5-1.5,0.2-2l0.5,1.7l0.3,0C2.6,32.9,2,31.6,3.6,31z"/>
	<path class="st0" d="M9.4,27.5c-0.1-0.6-0.3-1.2-0.2-1.7c0.1-0.5,0.6-1,1-1.6c0.2,0.7,0.3,1.3,0.5,1.9l-1.1,1.2l1.5,0.9
		c-0.8,0.2-1.3-0.2-1.8-0.5l-1.4,1.4l1.3,0.7L9.1,30l-1.4-0.4c-0.3-1.4-0.7-2.8,1-3.5c0.1,0.5,0.3,1,0.4,1.5L9.4,27.5z"/>
	<path class="st0" d="M6.9,27.7c0.4,1.1,0.6,2.2-0.8,2.9l1.4,0.8l-0.1,0.2l-1.4-0.4C5.7,29.8,5.3,28.4,6.9,27.7z"/>
	<path class="st0" d="M1,32.9c0.5,2.1,1,2.6,2.7,2.8c-0.4,0.8-0.9,0.3-1.4,0.2c-0.9-0.3-1.8-1.5-1.8-2.3C0.6,33.4,0.8,33.2,1,32.9z"
		/>
</g>
<g>
	<path class="st0" d="M19,18.4c0.5,1,0.5,1-0.9,2.1C17.4,19.7,17.4,19.6,19,18.4z"/>
	<path class="st0" d="M17.5,19.2c-0.4-1.1-0.3-1.2,0.9-2.1C19,18,19,18,17.5,19.2z"/>
	<path class="st0" d="M25.5,14.3c0.7,0.8,0.7,0.9-0.3,1.5C24.5,15.1,24.8,14.7,25.5,14.3z"/>
	<path class="st0" d="M30,5.3l-0.5-0.9l0.7-0.7C31,4.5,31,4.5,30,5.3z"/>
	<path class="st0" d="M30.7,7.4c0.6,0.9,0.6,0.9-0.3,1.5C29.7,8.1,29.7,8.1,30.7,7.4z"/>
	<path class="st0" d="M28,11.2c-0.7-0.9-0.7-0.9,0.2-1.5C28.9,10.4,28.9,10.4,28,11.2z"/>
	<path class="st0" d="M31.1,10.3l-0.5-0.9l0.8-0.7C32.1,9.5,32.1,9.5,31.1,10.3z"/>
	<path class="st0" d="M28.2,14.9c-0.6-0.9-0.6-0.9,0.3-1.5C29.2,14.2,29.2,14.3,28.2,14.9z"/>
	<path class="st0" d="M27,16c-0.6-0.8-0.6-0.8,0.3-1.5C28,15.3,28,15.3,27,16z"/>
	<path class="st0" d="M22.8,18.1l-0.4-0.9l0.8-0.7C23.8,17.3,23.8,17.3,22.8,18.1z"/>
	<path class="st0" d="M31.8,6.2l0.5,0.9l-0.8,0.7C30.9,7.1,30.9,7.1,31.8,6.2z"/>
	<path class="st0" d="M31.6,5.8l-0.7,0.8c-0.8-0.8-0.8-0.9,0.2-1.6L31.6,5.8z"/>
	<path class="st0" d="M25,16.7c0.7,0.7,0.3,1.2-0.3,1.6C24,17.5,24,17.4,25,16.7z"/>
	<path class="st0" d="M22.2,20.5c-0.6-0.7-0.4-1.1,0.3-1.5C23.2,19.7,23.2,19.8,22.2,20.5z"/>
	<path class="st0" d="M28.3,3.5c0.8,0.7,0.5,1.2-0.2,1.6c-0.2-0.3-0.3-0.6-0.5-0.9L28.3,3.5z"/>
	<path class="st0" d="M26.2,4.9L25.7,4l0.8-0.7L27,4.1C26.8,4.4,26.5,4.6,26.2,4.9z"/>
	<path class="st0" d="M29.4,13.9c-0.2-0.3-0.3-0.6-0.5-0.9l0.8-0.8l0.6,1L29.4,13.9z"/>
	<path class="st0" d="M27.8,11.9c0.7,1,0.7,1.1-0.3,1.6L27,12.7L27.8,11.9z"/>
	<path class="st0" d="M25.6,13.4l-0.5-0.9l0.7-0.6C26.6,12.6,26.6,12.7,25.6,13.4z"/>
	<path class="st0" d="M24.1,11.6c0.7,0.6,0.4,1.1-0.3,1.5C23.2,12.4,23.2,12.3,24.1,11.6z"/>
	<path class="st0" d="M28.7,12.5c-0.6-0.8-0.6-0.8,0.3-1.5C29.7,11.7,29.7,11.8,28.7,12.5z"/>
	<path class="st0" d="M29.3,10.5l0.9-0.8l0.6,0.9c-0.3,0.3-0.5,0.5-0.9,0.8C29.7,11.1,29.6,10.9,29.3,10.5z"/>
	<path class="st0" d="M29.5,2.4c0.7,0.6,0.5,1.1-0.2,1.5C28.5,3.2,28.6,3.1,29.5,2.4z"/>
	<path class="st0" d="M27.7,7.5c-0.1-0.1-0.1-0.2-0.2-0.2c-0.1-0.2-0.2-0.4-0.4-0.7l0.7-0.7C28.7,6.7,28.7,6.7,27.7,7.5z"/>
	<path class="st0" d="M29.9,6.1L30.5,7l-0.8,0.7C28.9,6.9,28.9,6.9,29.9,6.1z"/>
	<path class="st0" d="M28.7,7.2c0.1,0.1,0.2,0.2,0.2,0.3c0.1,0.2,0.2,0.3,0.3,0.6l-0.8,0.6C27.8,8,27.8,7.9,28.7,7.2z"/>
	<path class="st0" d="M28.1,9.1l-0.8,0.7c-0.7-0.9-0.7-0.9,0.3-1.5c0.1,0.1,0.1,0.1,0.2,0.2C27.9,8.7,28,8.9,28.1,9.1z"/>
	<path class="st0" d="M29.5,8.5c0.7,0.7,0.5,1.1-0.2,1.5C28.5,9.3,28.5,9.3,29.5,8.5z"/>
	<path class="st0" d="M29,4.8c0.7,0.8,0.7,0.8-0.2,1.6l-0.5-0.9L29,4.8z"/>
	<path class="st0" d="M26.1,11c-0.7-0.7-0.5-1.2,0.3-1.5C27.1,10.2,27.1,10.2,26.1,11z"/>
	<path class="st0" d="M19.8,18.9c-0.6-0.7-0.4-1.1,0.3-1.5C20.8,18.1,20.8,18.2,19.8,18.9z"/>
	<path class="st0" d="M24.8,8.4c-0.7-0.7-0.6-1.2,0.2-1.6l0.5,0.9L24.8,8.4z"/>
	<path class="st0" d="M22.2,10.9l-0.8,0.7c-0.6-0.8-0.6-0.8,0.3-1.6L22.2,10.9z"/>
	<path class="st0" d="M21.2,15.7l-0.8,0.8l-0.5-0.9l0.8-0.9L21.2,15.7z"/>
	<path class="st0" d="M21.8,9.1c-0.1-0.3-0.3-0.5-0.4-0.8L22,7.6C22.7,8.5,22.7,8.5,21.8,9.1z"/>
	<path class="st0" d="M24.9,8.8l0.8-0.7C26.3,9,26.3,9,25.4,9.6C25.2,9.4,25.1,9.1,24.9,8.8z"/>
	<path class="st0" d="M26.3,14.7l-0.5-0.9l0.8-0.7C27.3,14,27.3,14,26.3,14.7z"/>
	<path class="st0" d="M26.8,12.3c-0.6-0.9-0.6-0.9,0.3-1.5C27.8,11.5,27.8,11.5,26.8,12.3z"/>
	<path class="st0" d="M23.8,9.9l0.7-0.7c0.7,0.8,0.7,0.8-0.2,1.6L23.8,9.9z"/>
	<path class="st0" d="M22.7,8.8l0.5,0.9l-0.8,0.8L22,9.6L22.7,8.8z"/>
	<path class="st0" d="M20.8,10.2c-0.7-0.7-0.6-1.1,0.2-1.6l0.5,0.9L20.8,10.2z"/>
	<path class="st0" d="M25.3,4.3c0.1,0.1,0.2,0.2,0.3,0.3c0.1,0.2,0.2,0.4,0.4,0.7L25.1,6l-0.6-1L25.3,4.3z"/>
	<path class="st0" d="M20.4,20.2c-0.6-0.7-0.4-1.2,0.3-1.5C21.4,19.5,21.4,19.5,20.4,20.2z"/>
	<path class="st0" d="M23.5,19.4c-0.6-0.7-0.4-1.1,0.2-1.5C24.5,18.5,24.4,18.7,23.5,19.4z"/>
	<path class="st0" d="M20.2,12.6c-0.7-0.6-0.5-1.1,0.2-1.5C21.1,11.9,21.1,11.9,20.2,12.6z"/>
	<path class="st0" d="M21.8,17l-0.8,0.8c-0.6-0.7-0.5-1.2,0.3-1.6L21.8,17z"/>
	<path class="st0" d="M18.7,16.7l0.8-0.7c0.7,0.9,0.7,0.9-0.3,1.5c-0.1,0-0.1-0.1-0.2-0.2C18.9,17.1,18.9,16.9,18.7,16.7z"/>
	<path class="st0" d="M26.2,15.6c0.2,0.3,0.3,0.6,0.4,0.9l-0.8,0.7C25.2,16.4,25.2,16.3,26.2,15.6z"/>
	<path class="st0" d="M22.2,16.7c-0.7-0.7-0.3-1.1,0.3-1.5C23.1,15.8,22.9,16.3,22.2,16.7z"/>
	<path class="st0" d="M21.2,12.5c0.6,0.7,0.4,1.2-0.3,1.5C20.2,13.3,20.5,12.9,21.2,12.5z"/>
	<path class="st0" d="M23.7,14.1c0.6,0.9,0.6,0.9-0.3,1.5C22.8,14.7,22.8,14.7,23.7,14.1z"/>
	<path class="st0" d="M23,12.7c0.6,0.8,0.6,0.8-0.3,1.5C22,13.4,22,13.4,23,12.7z"/>
	<path class="st0" d="M27,6.1c-0.6-0.8-0.6-0.8,0.2-1.5C27.9,5.4,27.9,5.5,27,6.1z"/>
	<path class="st0" d="M24.3,5.5c0.6,0.6,0.5,1.1-0.3,1.5C23.4,6.1,23.4,6.1,24.3,5.5z"/>
	<path class="st0" d="M23.4,10.3c0.7,0.7,0.4,1.1-0.3,1.5C22.5,11.2,22.7,10.7,23.4,10.3z"/>
	<path class="st0" d="M22,12.9c-0.6-0.7-0.4-1.2,0.3-1.6l0.5,0.9L22,12.9z"/>
	<path class="st0" d="M26.9,7c0.6,0.8,0.6,0.8-0.3,1.5L26,7.7L26.9,7z"/>
	<path class="st0" d="M22.3,14.6l-0.7,0.7c-0.7-0.8-0.7-0.9,0.3-1.5L22.3,14.6z"/>
	<path class="st0" d="M17.3,17.4c-0.2-1-0.1-1.2,0.5-1.6C18.3,16.6,18.3,16.6,17.3,17.4z"/>
	<path class="st0" d="M25.4,6.4l0.7-0.9l0.6,1l-0.8,0.8C25.6,7,25.5,6.7,25.4,6.4z"/>
	<path class="st0" d="M25.3,10.5c0.6,0.8,0.6,0.8-0.3,1.5C24.4,11.2,24.4,11.2,25.3,10.5z"/>
	<path class="st0" d="M20,13.5c0.6,0.9,0.6,0.9-0.3,1.5C19.2,14.3,19.2,14.3,20,13.5z"/>
	<path class="st0" d="M22.9,8c-0.7-0.6-0.4-1,0.2-1.4C23.8,7.3,23.8,7.4,22.9,8z"/>
	<path class="st0" d="M24,16.9c-0.6-0.9-0.6-0.9,0.4-1.5C24.9,16.2,24.9,16.2,24,16.9z"/>
	<path class="st0" d="M21.6,19.2l-0.5-0.9l0.8-0.6C22.6,18.3,22.6,18.3,21.6,19.2z"/>
	<path class="st0" d="M23.9,7.9c0.7,0.7,0.4,1.1-0.3,1.5C23,8.7,23.1,8.3,23.9,7.9z"/>
	<path class="st0" d="M24.8,12.9c0.6,0.9,0.6,0.9-0.4,1.6C23.9,13.9,24,13.3,24.8,12.9z"/>
	<path class="st0" d="M19.1,13.7c-0.6-0.9-0.6-0.9,0.3-1.5C20,12.8,19.8,13.3,19.1,13.7z"/>
	<path class="st0" d="M18.7,16.2c-0.7-0.7-0.5-1.2,0.3-1.6l0.4,0.9L18.7,16.2z"/>
	<path class="st0" d="M18,14.8c-0.5-0.6-0.2-1.1,0.3-1.5C18.9,14.1,18.9,14.1,18,14.8z"/>
	<path class="st0" d="M19.8,9.7c0.7,0.7,0.5,1.2-0.2,1.6C19,10.7,19.4,10.2,19.8,9.7z"/>
	<path class="st0" d="M27.5,4c-0.3-0.4-0.4-0.6-0.7-1L28,2.8L27.5,4z"/>
</g>
</svg>
