<?xml version="1.0" encoding="utf-8"?>
<!-- Generator: Adobe Illustrator 21.0.2, SVG Export Plug-In . SVG Version: 6.00 Build 0)  -->
<svg version="1.1" id="Layer_1" xmlns="http://www.w3.org/2000/svg" xmlns:xlink="http://www.w3.org/1999/xlink" x="0px" y="0px"
	 width="160px" height="50px" viewBox="0 0 160 50" style="enable-background:new 0 0 160 50;" xml:space="preserve">
<style type="text/css">
	.st0{clip-path:url(#SVGID_2_);}
	.st1{clip-path:url(#SVGID_4_);fill:#FFFFFF;}
</style>
<g>
	<g>
		<defs>
			<path id="SVGID_1_" d="M103,40.7c-8.3,0-9-6.1-7.7-10.2l1.6-6.4c1.9-7.4,5.4-10.9,13.4-10.9H126c0.3,0,0.6,0,0.6,0.3
				c0.3,0.3,0.3,0.3,0.3,0.6l-1.9,6.1c0,0.6-0.6,1-1.3,1h-13.4c-2.9,0-5.1,0.3-5.8,2.9l-1.3,5.8c-0.3,1.6-0.3,3.2,1.9,3.2h16.3
				c0.3,0,0.6,0,0.6,0.3c0.3,0.3,0.3,0.3,0,0.6l-1.3,6.1c0,0.6-0.6,1-1.3,1L103,40.7L103,40.7 M54.7,40.7h10.9
				c7.7,0,10.6-2.9,12.5-10.2l1.6-6.4c1-4.5,0.6-10.9-7.7-10.9H61.1c-7.7,0-11.5,3.5-13.4,10.9l-5.8,24c0,0.3,0,0.3,0,0.6
				s0.3,0.3,0.6,0.3h6.7c0.6,0,1-0.3,1.3-1l1.9-7.4C53.4,40.7,54.1,40.7,54.7,40.7L54.7,40.7z M56,24c0.6-2.6,3.2-2.9,5.8-2.9h8
				c1.9,0,2.6,1,2.2,2.6l-1.3,5.1c-0.6,2.9-1.9,3.5-4.8,3.5h-9.3c-2.2,0-2.2-1.6-1.9-3.2L56,24z M135.6,24c0.6-2.6,3.2-2.9,6.1-2.9
				h7.7c1.9,0,2.6,1,2.2,2.6l-1.3,5.1c-0.6,2.9-1.9,3.5-4.8,3.5h-9.3c-2.2,0-2.2-1.6-1.9-3.2L135.6,24z M145.5,40.7
				c7.7,0,10.6-2.9,12.5-10.2l1.6-6.4c1-4.5,0.6-10.9-7.7-10.9h-10.9c-7.7,0-11.5,3.5-13.4,10.9l-1.6,6.4c-1,4.5-0.3,10.2,7.7,10.2
				H145.5z M30.7,39.7c0,0.3,0,0.6,0,0.6c0,0.3,0.3,0.3,0.6,0.3h6.7c0.6,0,1-0.3,1.3-1l6.1-25.9c0-0.3,0-0.3,0-0.6s-0.3-0.3-0.6-0.3
				h-6.7c-0.6,0-1,0.3-1.3,1L30.7,39.7z M80,39.7c0,0.3,0,0.3,0,0.6s0.3,0.3,0.6,0.3h6.7c0.6,0,1-0.3,1.3-1l6.1-25.9
				c0-0.3,0-0.3,0-0.6s-0.3-0.3-0.6-0.3h-6.7c-0.6,0-1,0.3-1.3,1L80,39.7z M0,20.2c0,0.3,0,0.6,0,0.6c0,0.3,0.3,0.3,0.6,0.3h7
				l-2.2,9.3c-1,4.5,0,10.2,8.3,10.2H24c0.6,0,1-0.3,1.3-1l1.3-5.1c0-0.3,0-0.3,0-0.6c0-0.3-0.3-0.3-0.6-0.3h-9.6
				c-2.2,0-2.2-1.6-1.9-3.5l2.2-9.3h12.2c0.6,0,1-0.3,1.3-1l1.6-6.1c0-0.3,0-0.3,0-0.6c0-0.3-0.3-0.3-0.6-0.3H2.6
				c-0.6,0-1,0.3-1.3,1L0,20.2z M20.5,5.8c0-2.6-2.2-4.8-5.1-4.8c-2.6,0-4.8,2.2-5.1,4.8c0.3,2.6,2.6,4.8,5.1,4.8
				C18.2,10.6,20.5,8.4,20.5,5.8z"/>
		</defs>
		<clipPath id="SVGID_2_">
			<use xlink:href="#SVGID_1_"  style="overflow:visible;"/>
		</clipPath>
		<g class="st0">
			<g>
				<defs>
					<rect id="SVGID_3_" x="-53.1" y="-23.9" width="1956.1" height="1079.6"/>
				</defs>
				<clipPath id="SVGID_4_">
					<use xlink:href="#SVGID_3_"  style="overflow:visible;"/>
				</clipPath>
				<rect x="0" y="1" class="st1" width="159.9" height="48"/>
			</g>
		</g>
	</g>
</g>
</svg>
