<?xml version="1.0" encoding="utf-8"?>
<!-- Generator: Adobe Illustrator 19.2.1, SVG Export Plug-In . SVG Version: 6.00 Build 0)  -->
<svg version="1.1" id="Layer_1" xmlns="http://www.w3.org/2000/svg" xmlns:xlink="http://www.w3.org/1999/xlink" x="0px" y="0px"
	 width="105px" height="30px" viewBox="0 0 105 30" style="enable-background:new 0 0 105 30;" xml:space="preserve">
<style type="text/css">
	.st0{fill:#FFFFFF;}
</style>
<g>
	<path class="st0" d="M6,6.4c0.5-0.1,0.9-0.2,1.4-0.3C7.9,6,8.5,6,9.1,6c1.2,0,2.3,0.2,3.2,0.6c1,0.4,1.8,1,2.4,1.8
		c0.6,0.7,1.1,1.6,1.5,2.7c0.3,1,0.5,2.1,0.5,3.3c0,1.5-0.2,2.9-0.7,4c-0.5,1.1-1.1,2.1-2,2.8c-0.8,0.7-1.8,1.3-3,1.6
		c-1.1,0.4-2.4,0.5-3.8,0.5c-1.5,0-2.8-0.1-4-0.4c-1.2-0.3-2.3-0.6-3.3-1V0.2h6V6.4z M6,18.7c0.2,0.1,0.5,0.1,0.7,0.2
		c0.2,0,0.5,0.1,0.8,0.1c1,0,1.8-0.4,2.5-1.1c0.6-0.7,1-1.8,1-3.3c0-1.4-0.3-2.5-0.9-3.2c-0.6-0.7-1.4-1-2.4-1c-0.3,0-0.6,0-0.9,0.1
		c-0.3,0.1-0.5,0.1-0.8,0.2V18.7z"/>
	<path class="st0" d="M23.3,15.7c0,1,0.4,1.8,1,2.3c0.6,0.6,1.4,0.8,2.3,0.8c0.7,0,1.4-0.1,1.9-0.4c0.5-0.3,1-0.7,1.5-1.3l3.6,2.9
		c-0.4,0.5-0.8,0.9-1.2,1.2c-0.5,0.4-1,0.7-1.6,1c-0.6,0.3-1.3,0.5-2.1,0.7c-0.8,0.2-1.7,0.2-2.6,0.2c-1.2,0-2.3-0.2-3.3-0.5
		c-1-0.4-1.9-0.9-2.7-1.6c-0.8-0.7-1.4-1.6-1.8-2.7c-0.5-1.1-0.7-2.3-0.7-3.8c0-1.4,0.2-2.6,0.6-3.7c0.4-1.1,1-2,1.8-2.7
		c0.7-0.7,1.6-1.3,2.7-1.7c1-0.4,2.1-0.6,3.3-0.6c2.5,0,4.4,0.8,5.9,2.4c1.5,1.6,2.2,4.1,2.2,7.4H23.3z M28.5,12.6
		c-0.1-0.9-0.3-1.6-0.8-2.1c-0.5-0.5-1-0.8-1.7-0.8c-0.7,0-1.3,0.3-1.8,0.8c-0.5,0.5-0.8,1.2-0.9,2.1H28.5z"/>
	<path class="st0" d="M33.9,10.5V6.3h2.3V2.1h6v4.2h2.5l1.5,4.1h-4v6.7c0,0.6,0.1,1,0.2,1.3c0.1,0.3,0.4,0.5,0.8,0.5
		c0.4,0,0.8-0.1,1.2-0.3c0.4-0.2,0.7-0.4,1-0.6l1.5,3.6c-0.7,0.5-1.6,0.9-2.4,1.2c-0.9,0.3-1.9,0.4-3,0.4c-1,0-1.8-0.1-2.5-0.4
		c-0.7-0.3-1.2-0.6-1.6-1.1c-0.4-0.5-0.7-1.1-0.9-1.7c-0.2-0.7-0.3-1.4-0.3-2.3v-7.3H33.9z"/>
	<polygon class="st0" points="51.8,22.9 44.4,2.1 50.2,2.1 54.4,15.1 57,6.3 60.9,6.3 63.4,15.1 65.9,6.3 71.9,6.3 66.1,22.9 
		61.5,22.9 58.9,14.2 56.3,22.9 	"/>
	<path class="st0" d="M81.3,22.9l-0.5-1.3c-0.5,0.4-1.1,0.8-1.8,1.1c-0.8,0.3-1.7,0.5-2.7,0.5c-0.8,0-1.5-0.1-2.1-0.3
		c-0.7-0.2-1.2-0.6-1.7-1c-0.5-0.4-0.9-1-1.1-1.6c-0.3-0.6-0.4-1.3-0.4-2.1c0-0.8,0.2-1.5,0.5-2.1c0.3-0.6,0.7-1.1,1.3-1.6
		c0.5-0.4,1.1-0.8,1.9-1.1c0.7-0.3,1.5-0.5,2.2-0.6c0.7-0.1,1.4-0.2,2-0.3c0.6-0.1,1.2-0.1,1.7-0.1V12c0-0.7-0.2-1.2-0.6-1.5
		c-0.4-0.3-0.9-0.5-1.5-0.5c-0.7,0-1.3,0.1-1.9,0.4c-0.6,0.2-1.1,0.6-1.7,1l-2.7-3c0.9-0.8,1.9-1.4,3-1.9c1.1-0.5,2.5-0.7,4-0.7
		c2.2,0,3.9,0.5,5.2,1.6c1.3,1.1,1.9,2.7,1.9,4.9v10.5H81.3z M80.4,15.4c-0.3,0-0.7,0.1-1,0.1c-0.3,0-0.7,0.1-1.1,0.2
		c-0.7,0.1-1.2,0.4-1.5,0.7c-0.3,0.4-0.4,0.8-0.4,1.2c0,0.5,0.2,0.9,0.5,1.2c0.3,0.3,0.8,0.5,1.4,0.5c0.4,0,0.8-0.1,1.2-0.2
		c0.4-0.1,0.7-0.3,1-0.5V15.4z"/>
	<path class="st0" d="M87.8,24.8c0.3,0.2,0.7,0.3,1.1,0.5c0.4,0.1,0.8,0.2,1.2,0.2c0.4,0,0.8-0.1,1-0.2c0.3-0.2,0.5-0.4,0.7-0.9
		l1-2.1l-7-15.9h6.5l3.4,9.7l3.3-9.7h6.1L96.7,26c-0.6,1.4-1.4,2.4-2.4,2.9c-1,0.6-2.2,0.9-3.6,0.9c-0.9,0-1.7-0.1-2.4-0.3
		c-0.7-0.2-1.4-0.4-2.1-0.7L87.8,24.8z"/>
</g>
</svg>
