<?xml version="1.0" encoding="utf-8"?>
<!-- Generator: Adobe Illustrator 19.2.1, SVG Export Plug-In . SVG Version: 6.00 Build 0)  -->
<svg version="1.1" id="Layer_1" xmlns="http://www.w3.org/2000/svg" xmlns:xlink="http://www.w3.org/1999/xlink" x="0px" y="0px"
	 width="15px" height="19px" viewBox="0 0 15 19" style="enable-background:new 0 0 15 19;" xml:space="preserve">
<style type="text/css">
	.st0{fill:#191919;}
</style>
<title>football</title>
<desc>Created with Sketch.</desc>
<g id="UI-11">
	<g id="Home_TopBets_Over_Betslip" transform="translate(-1390.000000, -420.000000)">
		<g id="Home-Page-Widget" transform="translate(1341.000000, 412.000000)">
			<g id="TOP-BETS">
				<g id="Group-7">
					<g>
						<g id="Branding" transform="translate(40.000000, 0.000000)">
							<path id="football" class="st0" d="M15.5,20c0.8,0,1.5-0.2,2.2-0.5c-0.2,0-0.3,0-0.5,0c-0.2,0-0.4,0-0.5,0
								C16.2,19.8,15.8,19.9,15.5,20C15.4,20,15.4,20,15.5,20 M11.1,17.9C11.1,17.9,11.1,17.9,11.1,17.9c0.1,0,0.3,0.1,0.5,0.1
								c0-0.6,0.1-1.6,0.2-2c0,0,0,0,0,0c-0.2-0.4-1-2-1.1-2.4c-0.2,0-0.4,0-0.6,0c0,0.3-0.1,0.6-0.1,0.9
								C9.9,15.8,10.4,17,11.1,17.9 M10.1,13.2c0.2,0,0.4,0,0.6,0c0.2-0.3,1-1.6,1.6-2.1c0-0.3,0.1-0.9,0.2-1.4
								C11.3,10.6,10.4,11.8,10.1,13.2 M12.8,9.6c-0.1,0.3-0.1,0.7-0.2,1c0,0.2-0.1,0.4-0.1,0.5c0.5,0.1,2,0.7,2.4,0.9
								c0.6-0.4,1.9-0.9,2.7-1.2c0-0.7-0.1-1.4-0.1-1.5l0,0c-0.6-0.3-1.3-0.4-2.1-0.4C14.5,8.9,13.6,9.2,12.8,9.6 M21,14.5
								c0-0.7-0.1-1.4-0.4-2c-0.1,0.1-0.2,0.2-0.3,0.2c-0.1,0.1-0.2,0.2-0.2,0.2c0,0.4,0,1.8-0.3,3c0.2,0.3,0.5,0.7,0.6,1
								C20.8,16.2,21,15.3,21,14.5 M14.2,19.7L14.2,19.7L14.2,19.7L14.2,19.7C14.2,19.8,14.2,19.8,14.2,19.7
								c0.2,0.1,0.4,0.1,0.5,0.1c0.4,0,1-0.1,1.8-0.5c0.4-0.6,0.5-1.8,0.5-2.1c-0.6-0.4-2.3-1.6-2.5-1.8c-0.8,0.2-2.1,0.6-2.5,0.6
								c0,0.4-0.2,1.8-0.2,2.1l0.1,0.1c0.1,0.1,1.3,0.9,1.9,1.3C14.1,19.6,14.2,19.7,14.2,19.7 M14.8,15.2c0.5,0.4,1.9,1.4,2.5,1.8
								c0.6-0.1,1.9-0.9,2.3-1.1c0.3-1.3,0.3-2.7,0.3-3c-0.5-0.6-1.4-1.6-2-1.9c-1.7,0.6-2.5,1-2.8,1.2
								C15.1,12.8,14.9,14.8,14.8,15.2 M21.8,14.5c0,3.5-2.9,6.4-6.4,6.4C11.9,20.9,9,18,9,14.5C9,11,11.4,8,15.4,8
								C18.9,8,21.8,10.9,21.8,14.5 M21.5,18.3C21.1,19,20.6,19.5,20,20c1.2,0.8,1.1,3,1.1,3c0,0.1,0,0.1,0.1,0.2c0,0,0,0,0,0
								c0.1,0,0.1,0,0.1-0.1C22.2,20.8,21.8,19.2,21.5,18.3 M16.8,21.3c0.8,0.2,1.4,0.6,1.8,1.1c0.8,1,0.6,2.4,0.5,3.2
								c0,0.1,0,0.3,0,0.4c0,0.1,0,0.1,0.1,0.2c0,0,0,0,0,0c0.1,0,0.1,0,0.1-0.1c0.6-1.3,1.2-4.2,0.2-5.7
								C18.7,20.8,17.8,21.2,16.8,21.3 M21.7,26.9c0,0-0.1,0.1-0.1,0.1c0,0,0,0-0.1,0c-0.1,0-0.1-0.1-0.1-0.2
								c1.5-4.1,1.6-7.5,0.6-9.3c0.3-0.8,0.5-1.6,0.5-2.5c0-0.8-0.2-1.6-0.4-2.3c0.8,1.3,1.5,2.9,1.8,4.5
								C24.4,20.9,23.6,23.4,21.7,26.9"/>
						</g>
					</g>
				</g>
			</g>
		</g>
	</g>
</g>
</svg>
