<?xml version="1.0" encoding="utf-8"?>
<!-- Generator: Adobe Illustrator 19.2.1, SVG Export Plug-In . SVG Version: 6.00 Build 0)  -->
<svg version="1.1" id="Layer_1" xmlns="http://www.w3.org/2000/svg" xmlns:xlink="http://www.w3.org/1999/xlink" x="0px" y="0px"
	 width="16px" height="11px" viewBox="0 0 16 11" style="enable-background:new 0 0 16 11;" xml:space="preserve">
<style type="text/css">
	.st0{fill:#FFFFFF;}
</style>
<title>E46EE84D-A72E-4F9A-9494-94F37452E41D</title>
<desc>Created with sketchtool.</desc>
<g id="Page-2">
	<g id="HorseR_Timeform" transform="translate(-1389.000000, -424.000000)">
		<g id="Home-Page-Widget" transform="translate(1381.000000, 412.000000)">
			<g id="TOP-BETS">
				<g id="Group-7">
					<g>
						<g id="Branding">
							<path id="Fill-1" class="st0" d="M23.4,18.9c-0.1-0.2-0.8-1.8-0.7-2.2c0.1-1.1-0.5-2.1-0.7-2.3c0-0.9,0.5-1,0.4-1.4
								c-0.6-0.1-1.4,0.3-1.5,0.6c-0.8-0.6-2.4-1.4-4.3-1.2c-0.6,0.1-1.3,0.3-2,0.7c-0.6,0.3-1.5,0.2-2.4-0.1c0,0,0.1,0.8,1,1.1
								c-0.8,0.8-1,2.1-0.6,1.6c2.7-2.9,5.4-2.6,6.8-1.6c0,0,0,0,0,0c0,0,0,0,0,0c-0.6-0.3-2.3-0.6-4,0.4c-1.1,0.6-3.3,3.3-6.2,4.1
								c1.4,0,2.5,0.3,3.4,0.6c-2,0.7-3.5,2.2-4.1,3.5c1.2-0.3,2.6-0.3,3.8,0c1.4,0.3,5.5,0.5,5.2-2.9c-0.2-1.3,0-2.8,1.1-3.2
								c-0.2,1.7,1.4,1.9,1.8,2.1c0.4,0.3,1.4,1.3,1.5,1.5c0.1,0.2,0,0.4,0.4,0.6c0.3,0.1,0.8,0.1,1,0c0.3-0.2,0.6-0.8,0.6-1
								C23.6,19.3,23.5,19.2,23.4,18.9"/>
						</g>
					</g>
				</g>
			</g>
		</g>
	</g>
</g>
</svg>
