<?xml version="1.0" encoding="UTF-8" standalone="no"?>
<svg width="16px" height="11px" viewBox="0 0 16 11" version="1.1" xmlns="http://www.w3.org/2000/svg" xmlns:xlink="http://www.w3.org/1999/xlink">
    <!-- Generator: sketchtool 41.1 (35376) - http://www.bohemiancoding.com/sketch -->
    <title>E46EE84D-A72E-4F9A-9494-94F37452E41D</title>
    <desc>Created with sketchtool.</desc>
    <defs></defs>
    <g id="Page-2" stroke="none" stroke-width="1" fill="none" fill-rule="evenodd">
        <g id="HorseR_Timeform" transform="translate(-1389.000000, -424.000000)" fill="#191919">
            <g id="Home-Page-Widget" transform="translate(1381.000000, 412.000000)">
                <g id="TOP-BETS">
                    <g id="Group-7">
                        <g>
                            <g id="Branding">
                                <path d="M23.4160745,18.9267518 C23.3433272,18.6942713 22.627246,17.0775226 22.670739,16.68971 C22.7890504,15.6184359 22.1252643,14.5738273 21.9629422,14.3602456 C21.9991864,13.4492225 22.4509441,13.4088362 22.3315972,13.0057492 C21.7514316,12.8949456 20.9758064,13.2938904 20.8473985,13.6058491 C20.0536513,13.0334501 18.4053183,12.2031998 16.5566069,12.4530257 C15.9189684,12.5394939 15.2298114,12.8014875 14.5556699,13.1388171 C13.9216559,13.4567302 13.0657757,13.3055403 12.1296407,13.0194702 C12.1296407,13.0194702 12.2404443,13.8323751 13.0797556,14.1342373 C12.3103437,14.9701831 12.048868,16.2275968 12.5291032,15.7155185 C15.2691622,12.7913909 17.952784,13.0790142 19.3360167,14.1321662 C19.34456,14.1399328 19.3502555,14.1510649 19.34456,14.1621971 C19.3391234,14.1717759 19.3264379,14.1751414 19.3168591,14.1717759 C18.7297036,13.9144423 17.0562586,13.5517417 15.3501939,14.5404308 C14.2605388,15.171856 12.0827821,17.8875797 9.11826813,18.6254074 C10.4782011,18.6339507 11.63672,18.912513 12.4765491,19.2746958 C10.4908865,19.9309741 8.95542826,21.4524525 8.33099303,22.7282472 C9.54750263,22.442436 10.8849124,22.433375 12.1508694,22.7321305 C13.5353966,23.0365815 17.6654195,23.2408433 17.3635574,19.7953174 C17.1339247,18.5130505 17.3423286,17.0254863 18.4705578,16.556901 C18.2631894,18.2492447 19.9019435,18.4144146 20.2410854,18.6512961 C20.6734265,18.9521227 21.6023128,19.977056 21.7232129,20.1432614 C21.8456665,20.3097257 21.7591982,20.5489372 22.0828069,20.7060815 C22.3380694,20.8290528 22.8822496,20.8137785 23.0797804,20.6757917 C23.3912213,20.4593623 23.6350928,19.8924 23.669007,19.6311831 C23.6441538,19.2661525 23.490375,19.1613033 23.4160745,18.9267518" id="Fill-1"></path>
                            </g>
                        </g>
                    </g>
                </g>
            </g>
        </g>
    </g>
</svg>