<?xml version="1.0" encoding="utf-8"?>
<!-- Generator: Adobe Illustrator 19.2.1, SVG Export Plug-In . SVG Version: 6.00 Build 0)  -->
<svg version="1.1" id="Layer_1" xmlns="http://www.w3.org/2000/svg" xmlns:xlink="http://www.w3.org/1999/xlink" x="0px" y="0px"
	 width="6px" height="22px" viewBox="0 0 6 22" style="enable-background:new 0 0 6 22;" xml:space="preserve">
<style type="text/css">
	.st0{fill:#333333;}
</style>
<path class="st0" d="M3.4,5.3l2.4,2.4c0.2,0.2,0.2,0.6,0,0.8L5.6,8.7c-0.2,0.2-0.6,0.2-0.8,0L3,6.9L1.2,8.7c-0.2,0.2-0.6,0.2-0.8,0
	L0.2,8.5c-0.2-0.2-0.2-0.6,0-0.8l2.4-2.4C2.7,5.2,2.8,5.1,3,5.1C3.2,5.1,3.3,5.2,3.4,5.3z"/>
<path class="st0" d="M2.6,16.7l-2.4-2.4c-0.2-0.2-0.2-0.6,0-0.8l0.2-0.2c0.2-0.2,0.6-0.2,0.8,0L3,15.1l1.8-1.8
	c0.2-0.2,0.6-0.2,0.8,0l0.2,0.2c0.2,0.2,0.2,0.6,0,0.8l-2.4,2.4c-0.1,0.1-0.3,0.2-0.4,0.2C2.8,16.9,2.7,16.8,2.6,16.7z"/>
</svg>
