<?xml version="1.0" encoding="utf-8"?>
<!-- Generator: Adobe Illustrator 22.0.1, SVG Export Plug-In . SVG Version: 6.00 Build 0)  -->
<svg version="1.1" id="Layer_1" xmlns="http://www.w3.org/2000/svg" xmlns:xlink="http://www.w3.org/1999/xlink" x="0px" y="0px"
	 width="96px" height="96px" viewBox="0 0 96 96" style="enable-background:new 0 0 96 96;" xml:space="preserve">
<path d="M6.7,53.9h64.7L38,87.3c-0.9,0.9-0.9,2.3,0,3.2l4.8,4.8c0.9,0.9,2.3,0.9,3.2,0l45.7-45.7c0.9-0.9,0.9-2.3,0-3.2L45.6,0.7
	c-0.9-0.9-2.3-0.9-3.2,0l-4.8,4.8c-0.9,0.9-0.9,2.3,0,3.2l34.5,34.2H6.7c-1.7,0-3.1,1.4-3.1,3.1v4.9C3.6,52.5,5,53.9,6.7,53.9z"/>
</svg>
