<?xml version="1.0" encoding="utf-8"?>
<!-- Generator: Adobe Illustrator 21.0.2, SVG Export Plug-In . SVG Version: 6.00 Build 0)  -->
<svg version="1.1" id="Layer_1" xmlns="http://www.w3.org/2000/svg" xmlns:xlink="http://www.w3.org/1999/xlink" x="0px" y="0px"
	 width="12px" height="7px" viewBox="0 0 12 7" style="enable-background:new 0 0 12 7;" xml:space="preserve">
<style type="text/css">
	.st0{fill:#FFFFFF;}
</style>
<g>
	<path class="st0" d="M6,7C5.9,7,5.8,7,5.7,6.9L0.1,1.3C0,1.2,0,1.1,0,1s0-0.2,0.1-0.3l0.6-0.6C0.8,0,0.9,0,1,0s0.2,0,0.3,0.1L6,4.8
		l4.7-4.7C10.8,0,10.9,0,11,0s0.2,0,0.3,0.1l0.6,0.6C12,0.8,12,0.9,12,1s0,0.2-0.1,0.3L6.3,6.9C6.2,7,6.1,7,6,7z"/>
</g>
</svg>
